<mxfile host="app.diagrams.net" agent="Mozilla/5.0 (Windows NT 10.0; Win64; x64) AppleWebKit/537.36 (KHTML, like Gecko) Chrome/129.0.0.0 Safari/537.36" version="24.7.17">
  <diagram name="Page-1" id="tVLbkMmwTDM8UQwS_5az">
    <mxGraphModel dx="1050" dy="565" grid="1" gridSize="10" guides="1" tooltips="1" connect="1" arrows="1" fold="1" page="1" pageScale="1" pageWidth="827" pageHeight="1169" math="0" shadow="0">
      <root>
        <mxCell id="0" />
        <mxCell id="1" parent="0" />
        <mxCell id="HP1RBGwAj5SevZpqLNLj-1" value="" style="rounded=0;whiteSpace=wrap;html=1;shadow=1;strokeWidth=4;" vertex="1" parent="1">
          <mxGeometry x="80" y="160" width="120" height="160" as="geometry" />
        </mxCell>
        <mxCell id="HP1RBGwAj5SevZpqLNLj-2" value="&lt;font style=&quot;font-size: 36px;&quot;&gt;&lt;b style=&quot;&quot;&gt;C&lt;/b&gt; Code&lt;/font&gt;" style="text;html=1;align=center;verticalAlign=middle;whiteSpace=wrap;rounded=0;" vertex="1" parent="1">
          <mxGeometry x="90" y="190" width="100" height="100" as="geometry" />
        </mxCell>
        <mxCell id="HP1RBGwAj5SevZpqLNLj-3" value="" style="rounded=0;whiteSpace=wrap;html=1;shadow=1;strokeWidth=4;" vertex="1" parent="1">
          <mxGeometry x="340" y="160" width="120" height="160" as="geometry" />
        </mxCell>
        <mxCell id="HP1RBGwAj5SevZpqLNLj-4" value="&lt;font style=&quot;font-size: 24px;&quot;&gt;Expanded&lt;b style=&quot;&quot;&gt; C &lt;/b&gt;Code&lt;/font&gt;" style="text;html=1;align=center;verticalAlign=middle;whiteSpace=wrap;rounded=0;" vertex="1" parent="1">
          <mxGeometry x="350" y="190" width="100" height="100" as="geometry" />
        </mxCell>
        <mxCell id="HP1RBGwAj5SevZpqLNLj-5" value="" style="endArrow=classic;html=1;rounded=0;entryX=0;entryY=0.5;entryDx=0;entryDy=0;exitX=1;exitY=0.5;exitDx=0;exitDy=0;" edge="1" parent="1" source="HP1RBGwAj5SevZpqLNLj-1" target="HP1RBGwAj5SevZpqLNLj-3">
          <mxGeometry width="50" height="50" relative="1" as="geometry">
            <mxPoint x="390" y="320" as="sourcePoint" />
            <mxPoint x="440" y="270" as="targetPoint" />
          </mxGeometry>
        </mxCell>
        <mxCell id="HP1RBGwAj5SevZpqLNLj-6" value="&lt;b style=&quot;&quot;&gt;&lt;font style=&quot;font-size: 18px;&quot;&gt;Preprocessing&lt;/font&gt;&lt;/b&gt;" style="text;html=1;align=center;verticalAlign=middle;whiteSpace=wrap;rounded=0;" vertex="1" parent="1">
          <mxGeometry x="220" y="200" width="100" height="40" as="geometry" />
        </mxCell>
        <mxCell id="HP1RBGwAj5SevZpqLNLj-7" value="" style="rounded=0;whiteSpace=wrap;html=1;shadow=1;strokeWidth=4;" vertex="1" parent="1">
          <mxGeometry x="560" y="160" width="120" height="160" as="geometry" />
        </mxCell>
        <mxCell id="HP1RBGwAj5SevZpqLNLj-8" value="&lt;span style=&quot;font-size: 24px;&quot;&gt;Runnable&amp;nbsp;&lt;/span&gt;&lt;div&gt;&lt;span style=&quot;font-size: 24px;&quot;&gt;&lt;b&gt;exe&lt;/b&gt;&lt;/span&gt;&lt;/div&gt;" style="text;html=1;align=center;verticalAlign=middle;whiteSpace=wrap;rounded=0;" vertex="1" parent="1">
          <mxGeometry x="570" y="190" width="100" height="100" as="geometry" />
        </mxCell>
        <mxCell id="HP1RBGwAj5SevZpqLNLj-9" value="&lt;b style=&quot;&quot;&gt;&lt;font style=&quot;font-size: 18px;&quot;&gt;Compiling&lt;/font&gt;&lt;/b&gt;" style="text;html=1;align=center;verticalAlign=middle;whiteSpace=wrap;rounded=0;" vertex="1" parent="1">
          <mxGeometry x="460" y="200" width="100" height="40" as="geometry" />
        </mxCell>
        <mxCell id="HP1RBGwAj5SevZpqLNLj-10" value="" style="endArrow=classic;html=1;rounded=0;entryX=0;entryY=0.5;entryDx=0;entryDy=0;exitX=1;exitY=0.5;exitDx=0;exitDy=0;" edge="1" parent="1" source="HP1RBGwAj5SevZpqLNLj-3" target="HP1RBGwAj5SevZpqLNLj-7">
          <mxGeometry width="50" height="50" relative="1" as="geometry">
            <mxPoint x="390" y="320" as="sourcePoint" />
            <mxPoint x="440" y="270" as="targetPoint" />
          </mxGeometry>
        </mxCell>
      </root>
    </mxGraphModel>
  </diagram>
</mxfile>
